<svg xmlns="http://www.w3.org/2000/svg" width="40" height="40" viewBox="0 0 40 40">
    <path data-name="Icon ionic-ios-close-circle" d="M23.375 3.375a20 20 0 1 0 20 20 20 20 0 0 0-20-20zm5.067 27.24-5.067-5.067-5.067 5.067a1.537 1.537 0 1 1-2.173-2.173l5.065-5.067-5.067-5.067a1.537 1.537 0 0 1 2.173-2.173l5.069 5.065 5.067-5.067a1.537 1.537 0 0 1 2.173 2.173l-5.067 5.067 5.067 5.067a1.544 1.544 0 0 1 0 2.173 1.526 1.526 0 0 1-2.173.002z" transform="translate(-3.375 -3.375)" style="fill:#e24131"/>
</svg>
